# xmcd
#
# Track frame offsets:
#	150
#	11317
#	21932
#	34282
#	42580
#	60702
#	70502
#	81722
#	92155
#	100722
#	110937
#	123660
#
# Disc length: 1860 seconds
#
# Revision: 0
# Processed by: cddbd v1.4PL0 Copyright (c) Steve Scherf et al.
# Submitted via: audiograbber 1.81.01
#
DISCID=a607420c
DTITLE=Edoardo Vianello - I Grandi Successi Originali cd2
DYEAR=1900
DGENRE=pop
TTITLE0=Il cicerone
TTITLE1=Prendiamo in affitto una barca
TTITLE2=Da molto lontano
TTITLE3=Sul cucuzzolo
TTITLE4=Nasce una vita
TTITLE5=Tremarella
TTITLE6=Abbronzatissima
TTITLE7=Povero lui
TTITLE8=Carta vetrata
TTITLE9=Il peperone
TTITLE10=Caro amico
TTITLE11=E Brava Maria!
EXTD=
EXTT0=
EXTT1=
EXTT2=
EXTT3=
EXTT4=
EXTT5=
EXTT6=
EXTT7=
EXTT8=
EXTT9=
EXTT10=
EXTT11=
PLAYORDER=
